<svg width="120" height="120" viewBox="0 0 120 120" fill="none" xmlns="http://www.w3.org/2000/svg">
<path d="M53.9038 77.2524L44.9928 86.1634C39.8435 84.7899 35.7138 84.5274 31.6732 88.5681C27.6325 92.6087 25.5044 97.5353 26.8778 102.687L32.9247 96.6424L38.3834 94.8212L42.4779 98.9158L40.6592 104.377L34.6146 110.421C39.7638 111.797 44.6928 109.669 48.7334 105.628C52.7741 101.588 52.5116 97.458 51.1358 92.3064L60.0468 83.3954L65.8078 77.6344L74.7187 68.7234C79.8703 70.0992 84 70.3617 88.0407 66.3211C92.0813 62.2804 94.2095 57.3515 92.8337 52.2022L86.7891 58.2468L81.3305 60.0656L77.2359 55.971L79.0547 50.5124L85.0993 44.4655C79.9477 43.092 75.0211 45.2202 70.9804 49.2608C66.9398 53.3015 67.2023 57.4312 68.5757 62.5804L59.6647 71.4914" stroke="#1E2023" stroke-miterlimit="10" stroke-linecap="round" stroke-linejoin="round"/>
<path d="M14.4492 78.3141V49.5352" stroke="#1E2023" stroke-miterlimit="10" stroke-linecap="round" stroke-linejoin="round"/>
<path d="M105.219 49.2725V118.242H14.4492V85.9737" stroke="#1E2023" stroke-miterlimit="10" stroke-linecap="round" stroke-linejoin="round"/>
<path d="M60.0471 83.3952L36.3916 59.7395L42.1525 53.9785L49.0619 60.8881" stroke="#1E2023" stroke-miterlimit="10" stroke-linecap="round" stroke-linejoin="round"/>
<path d="M65.8078 77.6342L54.4805 66.3071" stroke="#1E2023" stroke-miterlimit="10" stroke-linecap="round" stroke-linejoin="round"/>
<path d="M68.7037 74.741L57.1797 86.265L79.6926 108.801C82.5292 111.637 87.1281 111.637 89.9648 108.801L91.2168 107.549C94.0534 104.712 94.0534 100.113 91.2168 97.2764L68.7037 74.741Z" stroke="#1E2023" stroke-miterlimit="10" stroke-linecap="round" stroke-linejoin="round"/>
<path d="M26.4053 49.1391L34.1249 62.0051L44.4177 51.7123L31.5517 43.9929L26.4053 49.1391Z" stroke="#1E2023" stroke-miterlimit="10" stroke-linecap="round" stroke-linejoin="round"/>
<path d="M81.0601 87.1201L69.5361 98.6441" stroke="#1E2023" stroke-miterlimit="10" stroke-linecap="round" stroke-linejoin="round"/>
<path d="M75.9129 81.9731L64.3887 93.4974" stroke="#1E2023" stroke-miterlimit="10" stroke-linecap="round" stroke-linejoin="round"/>
<path d="M14.4482 118.242H5.27148" stroke="#1E2023" stroke-miterlimit="10" stroke-linecap="round" stroke-linejoin="round"/>
<path d="M105.219 118.242H114.442" stroke="#1E2023" stroke-miterlimit="10" stroke-linecap="round" stroke-linejoin="round"/>
<path d="M90.0167 23.9152L117.814 45.7614L111.298 54.0513L60.0001 13.7339L8.70219 54.0513L2.18652 45.7614L56.7423 2.88458C58.6548 1.38222 61.3455 1.38222 63.258 2.88458L83.9932 19.1808" stroke="#1E2023" stroke-miterlimit="10" stroke-linecap="round" stroke-linejoin="round"/>
</svg>
