<svg width="61" height="61" viewBox="0 0 61 61" fill="none" xmlns="http://www.w3.org/2000/svg">
<g clip-path="url(#clip0_855_1454)">
<path d="M60.5471 14.5285L56.9331 12.1208V2.15749C56.9331 1.59603 56.4779 1.1408 55.9164 1.1408H48.7996C48.2381 1.1408 47.7829 1.59603 47.7829 2.15749V6.02069L39.1967 0.296872C38.8551 0.0690114 38.4098 0.0690114 38.0683 0.296872L16.7179 14.5305C16.4359 14.7186 16.2661 15.0353 16.2656 15.3744V21.4745C16.2656 21.8498 16.4716 22.1943 16.8023 22.3711C17.1334 22.5483 17.5345 22.5284 17.8463 22.3204L20.3324 20.6614V22.4912H22.3657V19.3081L38.6327 8.46114L54.8997 19.3081V41.8082H45.7495V24.5246C45.7495 23.9631 45.2943 23.5079 44.7328 23.5079H32.5326C31.9711 23.5079 31.5159 23.9631 31.5159 24.5246V33.6748H33.5493V25.5413H43.7162V41.8082H34.566V43.8416H55.9164C56.4779 43.8416 56.9331 43.3864 56.9331 42.8249V20.6614L59.4187 22.3184C59.7305 22.5265 60.1311 22.5458 60.4617 22.3696C60.7923 22.1933 60.9988 21.8493 60.9998 21.4745V15.3744C60.9998 15.0344 60.8301 14.7171 60.5471 14.5285ZM49.8163 3.17417H54.8997V10.7636L49.8163 7.37495V3.17417ZM58.9665 19.5752L39.1967 6.395C38.8551 6.16714 38.4098 6.16714 38.0683 6.395L18.299 19.5752V15.9155L38.6327 2.36102L58.9665 15.9185V19.5752Z" fill="#F45B1E"/>
<path d="M3.16477 61.1251H31.4002C32.6824 61.1217 33.8366 60.3472 34.3256 59.1623C34.8151 57.9773 34.5435 56.6141 33.6371 55.7071L32.533 54.6041V41.8081C32.5256 36.2476 28.4404 31.534 22.9375 30.7362L25.3144 25.9953C25.4723 25.6796 25.4549 25.3043 25.2683 25.004C25.0816 24.7041 24.7525 24.5224 24.3995 24.5244H10.1659C9.81344 24.5244 9.4858 24.7066 9.30063 25.0065C9.11546 25.3058 9.09808 25.6801 9.25595 25.9953L11.6269 30.7362C6.12398 31.534 2.03936 36.2476 2.03241 41.8081V54.6041L0.927859 55.7081C0.0223723 56.6151 -0.248678 57.9778 0.240305 59.1623C0.729287 60.3472 1.88299 61.1212 3.16477 61.1251ZM2.36552 57.1448L3.76793 55.7429C3.95806 55.5522 4.06529 55.2941 4.06579 55.025V41.8081C4.07125 36.7569 8.1648 32.6634 13.216 32.6579C13.5679 32.6579 13.8956 32.4757 14.0807 32.1759C14.2664 31.8765 14.2833 31.5022 14.1259 31.187L11.8106 26.5578H22.7543L20.4395 31.187C20.2816 31.5022 20.299 31.8765 20.4842 32.1759C20.6693 32.4757 20.997 32.6579 21.3495 32.6579C26.4006 32.6634 30.4937 36.7569 30.4996 41.8081V55.025C30.4996 55.2946 30.6069 55.5532 30.7975 55.7439L32.1994 57.1458C32.5236 57.4714 32.6209 57.9594 32.4466 58.3844C32.2719 58.8093 31.8598 59.0883 31.4002 59.0918H3.16477C2.70507 59.0888 2.29205 58.8098 2.1173 58.3844C1.94256 57.9589 2.04085 57.4699 2.36552 57.1448Z" fill="#F45B1E"/>
<path d="M15.7576 46.8914H18.8077C19.6496 46.8914 20.3327 47.574 20.3327 48.4164C20.3327 49.2589 19.6496 49.9414 18.8077 49.9414H13.2159V51.9748H16.266V54.0082H18.2993V51.9748H18.8077C20.7725 51.9748 22.3661 50.3818 22.3661 48.4164C22.3661 46.4511 20.7725 44.858 18.8077 44.858H15.7576C14.9152 44.858 14.2326 44.1754 14.2326 43.333C14.2326 42.4905 14.9152 41.808 15.7576 41.808H21.3494V39.7746H18.2993V37.7412H16.266V39.7746H15.7576C13.7923 39.7746 12.1992 41.3676 12.1992 43.333C12.1992 45.2983 13.7923 46.8914 15.7576 46.8914Z" fill="#F45B1E"/>
<path d="M36.5996 54.0083H38.633V56.0417H36.5996V54.0083Z" fill="#F45B1E"/>
<path d="M40.666 54.0083H42.6994V56.0417H40.666V54.0083Z" fill="#F45B1E"/>
<path d="M44.7334 54.0083H46.7668V56.0417H44.7334V54.0083Z" fill="#F45B1E"/>
<path d="M44.7334 49.9414H46.7668V51.9748H44.7334V49.9414Z" fill="#F45B1E"/>
<path d="M44.7334 45.875H46.7668V47.9084H44.7334V45.875Z" fill="#F45B1E"/>
<path d="M39.6494 32.6582H41.6828V36.7249H39.6494V32.6582Z" fill="#F45B1E"/>
</g>
<defs>
<clipPath id="clip0_855_1454">
<rect width="61" height="61" fill="white"/>
</clipPath>
</defs>
</svg>
