<svg width="51" height="51" viewBox="0 0 51 51" fill="none" xmlns="http://www.w3.org/2000/svg">
<g clip-path="url(#clip0_43_131)">
<path d="M40.3233 24.2785L41.8413 25.7965C43.1204 27.0757 45.2018 27.0758 46.481 25.7965L50.0406 22.2368C51.3198 20.9576 51.3198 18.8764 50.0406 17.5972L48.5226 16.0792C48.2121 15.7686 47.7085 15.7686 47.3979 16.0792L46.6537 16.8234L44.9577 16.2581C44.5223 16.113 44.111 15.8944 43.7456 15.6162C44.2192 15.0705 44.5041 14.3779 44.5446 13.6464C44.5962 12.7159 44.2477 11.8041 43.5887 11.1451L41.1322 8.6886C40.8216 8.37793 40.3181 8.37803 40.0075 8.6886C39.6968 8.99918 39.6968 9.50273 40.0075 9.81331L42.464 12.2698C42.8084 12.6143 42.9833 13.0719 42.9564 13.5583C42.9294 14.0448 42.7052 14.4802 42.3247 14.7846C41.7866 15.215 38.0366 18.215 37.6748 18.5045C37.3974 18.7262 36.999 18.7043 36.7479 18.4531L31.4152 13.1204C31.164 12.8693 31.142 12.4708 31.3639 12.1935L34.0437 8.84369C34.7726 7.93254 34.7001 6.62342 33.875 5.79845L33.1857 5.1091C32.5244 4.44768 31.5403 4.2557 30.6789 4.61967L28.5057 5.53798C27.8899 5.79825 27.1867 5.66086 26.7139 5.18813L26.5243 4.99855L30.3034 3.37894C31.694 2.78304 33.2837 3.08914 34.3534 4.15887L37.4797 7.28514C37.7903 7.59581 38.2938 7.59581 38.6044 7.28514C38.9151 6.97456 38.9151 6.47101 38.6044 6.16043L35.4779 3.03446C33.9456 1.50215 31.6686 1.06352 29.6766 1.91722L24.8178 3.9996C24.5752 4.10349 24.4 4.32102 24.3501 4.5802C24.3002 4.83928 24.382 5.10631 24.5687 5.29292L25.589 6.31323C26.5218 7.24597 27.9096 7.51698 29.1247 7.00349L31.2978 6.08517C31.5602 5.97442 31.8596 6.03288 32.0608 6.2341L32.7501 6.92346C33.0012 7.17448 33.0233 7.57295 32.8014 7.85022L30.1216 11.2C29.5069 11.9684 29.4622 13.02 29.9583 13.8255C25.5099 17.3842 25.4959 17.3951 25.2901 17.5607L22.392 14.6626C21.8266 14.0972 21.5458 13.3011 21.6216 12.4784C21.8969 9.48891 20.8386 6.5581 18.7178 4.43744C15.7079 1.42749 11.1061 0.637323 7.26708 2.47127C7.03415 2.58261 6.86961 2.80004 6.82597 3.05445C6.78232 3.30886 6.86494 3.56873 7.04747 3.75126L13.8238 10.5277L13.1386 13.085L10.5813 13.7703L3.80499 6.99394C3.62246 6.81131 3.36238 6.7288 3.10817 6.77244C2.85366 6.81609 2.63624 6.98052 2.52499 7.21355C0.691047 11.0526 1.48121 15.6543 4.49116 18.6642C6.61192 20.785 9.54313 21.8432 12.5321 21.568C13.3553 21.4919 14.1508 21.773 14.7163 22.3384L17.1249 24.7468C16.5544 25.2955 15.9899 25.849 15.432 26.4069L8.20249 33.6364C7.89182 33.947 7.89182 34.4505 8.20249 34.7611C8.51307 35.0717 9.01662 35.0717 9.3272 34.7611L16.5567 27.5316C19.7008 24.3875 23.0556 21.3849 26.5277 18.6071L31.0413 14.9963L34.5182 18.4732L30.9073 22.9867C28.1851 26.3895 25.1891 29.7516 21.9828 32.9578L7.28826 47.6524C6.92698 48.0137 6.33932 48.0136 5.97794 47.6524L1.86208 43.5364C1.68711 43.3615 1.59077 43.1288 1.59077 42.8814C1.59077 42.6339 1.68711 42.4012 1.86208 42.2262L6.86434 37.224C7.17502 36.9134 7.17502 36.4098 6.86434 36.0993C6.55376 35.7887 6.05022 35.7887 5.73964 36.0993L0.737276 41.1015C0.261864 41.5769 0 42.209 0 42.8814C0 43.5537 0.261864 44.1858 0.737276 44.6612L4.85314 48.7772C5.83458 49.7586 7.43142 49.7586 8.41296 48.7772L23.1076 34.0826C23.6655 33.5247 24.219 32.9602 24.7676 32.3897L40.0048 47.6268C42.1208 49.7428 45.5643 49.7431 47.6805 47.6268C49.7967 45.5107 49.7967 42.0673 47.6805 39.9512L38.8151 31.0858C38.5045 30.7752 38.0009 30.7752 37.6904 31.0858C37.3797 31.3963 37.3797 31.8999 37.6904 32.2105L46.5558 41.0759C48.0517 42.5719 48.0517 45.006 46.5558 46.502C45.0597 47.9979 42.6256 47.998 41.1296 46.502L25.8631 31.2357C26.2045 30.8713 26.5439 30.5047 26.8812 30.1359L39.1005 42.3553C39.2835 42.5383 39.5434 42.6201 39.7967 42.5769C40.051 42.5334 40.2684 42.3694 40.38 42.1367C40.7584 41.3477 41.4013 40.7047 42.1904 40.3264C42.423 40.2148 42.587 39.9974 42.6305 39.7431C42.6739 39.4888 42.5913 39.2293 42.4089 39.0469L29.9789 26.6168C30.303 26.2341 30.6246 25.8497 30.9435 25.4636L35.1625 29.6826C35.473 29.9932 35.9766 29.9933 36.2872 29.6826C36.5979 29.372 36.5979 28.8685 36.2872 28.5579L31.9537 24.2243C32.1383 23.9947 31.974 24.1996 35.65 19.6046C36.4722 20.4005 37.7627 20.4711 38.6682 19.7467L39.4964 19.0841C39.951 19.5396 40.2987 20.1029 40.5022 20.7134L41.0675 22.4093L40.3232 23.1536C40.0127 23.4643 40.0127 23.9679 40.3233 24.2785ZM15.841 21.2135C14.9403 20.3127 13.6811 19.8646 12.3862 19.984C9.86912 20.2164 7.40129 19.3248 5.61586 17.5394C3.35721 15.2807 2.58315 11.9574 3.53467 8.97324L9.78124 15.2198C9.98216 15.4207 10.2751 15.4992 10.5494 15.4257L13.9938 14.5028C14.2683 14.4292 14.4827 14.2149 14.5562 13.9404L15.4791 10.496C15.5527 10.2215 15.4742 9.92873 15.2732 9.72781L9.02676 3.48105C12.0111 2.52963 15.3343 3.30349 17.593 5.56224C19.3784 7.34767 20.2694 9.8154 20.0376 12.3326C19.9184 13.6275 20.3666 14.8868 21.2672 15.7874L24.0508 18.5709C23.6647 18.8899 23.2803 19.2115 22.8976 19.5356L20.9013 17.5393C19.9893 16.6272 18.5051 16.6271 17.5929 17.5393C16.6808 18.4514 16.6808 19.9356 17.5929 20.8477L19.3784 22.6331C19.0096 22.9703 18.643 23.3098 18.2786 23.6512L15.841 21.2135ZM20.5607 21.566L18.7177 19.723C18.4257 19.431 18.4257 18.956 18.7177 18.6641C19.0097 18.3721 19.4847 18.3721 19.7766 18.6641L21.687 20.5746C21.3097 20.9027 20.9342 21.2331 20.5607 21.566ZM40.5725 39.4599C40.173 39.7626 39.8163 40.1194 39.5136 40.5188L27.9485 28.9537C28.2813 28.5801 28.6118 28.2046 28.94 27.8274L40.5725 39.4599ZM48.9158 18.7219C49.5748 19.3808 49.5748 20.4531 48.9158 21.112L45.3562 24.6717C44.6972 25.3306 43.6251 25.3306 42.966 24.6717L42.0104 23.7161L42.5295 23.197C42.5359 23.1908 42.5423 23.1844 42.5486 23.1779L47.4213 18.3052C47.4279 18.2989 47.4342 18.2925 47.4406 18.2859L47.9601 17.7664L48.9158 18.7219ZM42.0113 20.2105C41.7488 19.4228 41.3122 18.6919 40.744 18.0863L42.5175 16.6675C43.0841 17.1543 43.7464 17.531 44.4548 17.7672L45.3963 18.0809L42.3253 21.1519L42.0113 20.2105Z" fill="white"/>
<path d="M41.5032 43.7888C41.5032 45.0788 42.5527 46.1282 43.8426 46.1282C45.1325 46.1282 46.182 45.0788 46.182 43.7888C46.182 42.4989 45.1325 41.4495 43.8426 41.4495C42.5527 41.4495 41.5032 42.4989 41.5032 43.7888ZM43.8426 43.0401C44.2555 43.0401 44.5913 43.376 44.5913 43.7888C44.5913 44.2017 44.2555 44.5376 43.8426 44.5376C43.4297 44.5376 43.0939 44.2017 43.0939 43.7888C43.0939 43.376 43.4297 43.0401 43.8426 43.0401Z" fill="white"/>
</g>
<defs>
<clipPath id="clip0_43_131">
<rect width="51" height="51" fill="white"/>
</clipPath>
</defs>
</svg>
