<svg width="61" height="61" viewBox="0 0 61 61" fill="none" xmlns="http://www.w3.org/2000/svg">
<g clip-path="url(#clip0_6177_43)">
<path d="M0.192912 5.59574L4.26112 12.7147C4.39835 12.9553 4.62803 13.1293 4.89663 13.1967L8.69206 14.1455L21.7096 27.163L23.1479 25.7251L9.92667 12.5043C9.79655 12.3737 9.63339 12.2813 9.45475 12.2365L5.80783 11.3215L2.34416 5.25686L5.31374 2.28729L11.3809 5.7543L12.2963 9.40122C12.3407 9.58028 12.4335 9.74386 12.5636 9.87397L25.7849 23.0952L27.2228 21.6569L14.2053 8.63937L13.2565 4.84602C13.1891 4.57701 13.0151 4.34691 12.7745 4.20927L5.65513 0.141474C5.2581 -0.0844443 4.75856 -0.0175054 4.43475 0.305056L0.366953 4.37327C0.039789 4.69499 -0.0313335 5.19536 0.192912 5.59574Z" fill="#F45B1E"/>
<path d="M42.4753 20.0436L20.1014 42.418L18.6631 40.9796L41.0374 18.6057L42.4753 20.0436Z" fill="#F45B1E"/>
<path d="M16.1855 43.2096C16.0014 42.9033 15.6709 42.7163 15.3136 42.7163H9.2117C8.85483 42.7163 8.5239 42.9033 8.34024 43.2096L5.28908 48.2944C5.09537 48.6166 5.09537 49.0194 5.28908 49.342L8.34024 54.4269C8.5239 54.7327 8.85483 54.9201 9.2117 54.9201H15.3136C15.6709 54.9201 16.0014 54.7327 16.1855 54.4269L19.2362 49.342C19.4299 49.0194 19.4299 48.6166 19.2362 48.2944L16.1855 43.2096ZM14.7383 52.886H9.78737L7.34661 48.8182L9.78737 44.75H14.7383L17.1791 48.8182L14.7383 52.886Z" fill="#F45B1E"/>
<path d="M48.8746 24.4101C55.5915 24.4327 61.0554 19.0056 61.078 12.2887C61.0814 11.2662 60.9559 10.2479 60.7044 9.25679C60.5689 8.71166 60.017 8.37989 59.4719 8.51544C59.2928 8.56021 59.1297 8.65267 58.9991 8.78278L52.6684 15.1093L47.6455 13.4355L45.9703 8.41378L52.3011 2.08178C52.6981 1.68433 52.6977 1.04046 52.3002 0.643427C52.1693 0.512478 52.0045 0.4196 51.8241 0.375253C45.3101 -1.27437 38.6928 2.66875 37.0432 9.18232C36.7926 10.1705 36.6675 11.1863 36.6708 12.2059C36.6733 13.0066 36.7558 13.8049 36.9181 14.5889L14.6454 36.8612C13.8614 36.6992 13.0632 36.6168 12.2628 36.6139C5.52248 36.6139 0.0585938 42.0778 0.0585938 48.8181C0.0585938 55.558 5.52248 61.0219 12.2628 61.0219C19.0027 61.0219 24.4666 55.558 24.4666 48.8181C24.4641 48.0174 24.3813 47.2191 24.2194 46.4351L29.5515 41.103L31.8834 43.435C32.2809 43.832 32.9244 43.832 33.3218 43.435L33.8301 42.9262C34.2761 42.4832 34.9969 42.4832 35.4429 42.9262C35.8885 43.3705 35.8893 44.0918 35.445 44.5374C35.4446 44.5378 35.4438 44.5386 35.4429 44.5395L34.9346 45.0478C34.5376 45.4448 34.5376 46.0887 34.9346 46.4857L47.0665 58.6176C50.2573 61.8377 55.4543 61.8612 58.6745 58.6703C61.8943 55.4794 61.9177 50.282 58.7268 47.0622C58.7096 47.0447 58.6921 47.0271 58.6745 47.0095L46.5427 34.8781C46.1456 34.4811 45.5018 34.4811 45.1047 34.8781L44.5964 35.3864C44.15 35.8299 43.4296 35.8299 42.9832 35.3864C42.538 34.9421 42.5368 34.2208 42.9811 33.7757C42.9819 33.7749 42.9828 33.7744 42.9832 33.7736L43.4919 33.2649C43.8889 32.8678 43.8889 32.224 43.4919 31.8269L41.1599 29.4949L46.492 24.1628C47.2761 24.3247 48.0743 24.4076 48.8746 24.4101ZM52.8705 58.9882C52.1316 58.987 51.3991 58.8535 50.7075 58.5937L58.6502 50.6506C59.8489 53.839 58.236 57.3951 55.0477 58.5937C54.3519 58.8552 53.6143 58.9891 52.8705 58.9882ZM41.349 32.5561C40.2228 33.8995 40.3993 35.9018 41.7427 37.0277C42.9234 38.0171 44.6441 38.0163 45.8235 37.0247L57.2366 48.4479C57.3604 48.5721 57.4763 48.7031 57.5884 48.8361L48.893 57.5315C48.7596 57.4198 48.6286 57.3039 48.5044 57.1796L37.0825 45.7569C38.2088 44.4135 38.0322 42.4112 36.6888 41.2854C35.5082 40.2955 33.787 40.2968 32.6076 41.2879L30.9806 39.6609L39.7216 30.9329L41.349 32.5561ZM45.4557 22.3275L22.3848 45.3938C22.1317 45.6465 22.03 46.0134 22.1162 46.3602C23.5115 51.8396 20.2005 57.4127 14.7207 58.8075C9.24136 60.2028 3.66828 56.8918 2.27302 51.412C0.878177 45.9326 4.18914 40.3596 9.66893 38.9643C11.3265 38.5426 13.0632 38.5426 14.7207 38.9643C15.0676 39.0492 15.4336 38.9476 15.6872 38.6961L38.7526 15.6294C39.0053 15.3767 39.107 15.0098 39.02 14.6634C37.6343 9.24801 40.901 3.73475 46.3163 2.3487C47.3396 2.08722 48.3981 1.98681 49.4524 2.05249L44.0877 7.41932C43.8153 7.69126 43.7199 8.09415 43.8417 8.45938L45.8754 14.5617C45.977 14.865 46.2155 15.1035 46.5192 15.2043L52.6215 17.2384C52.9864 17.3602 53.3893 17.2652 53.6616 16.9933L59.0263 11.6285C59.0385 11.8226 59.0448 12.0147 59.0448 12.2059C59.0732 17.794 54.5665 22.3471 48.9784 22.376C48.1145 22.3802 47.2535 22.2739 46.4167 22.0597C46.0699 21.9731 45.703 22.0743 45.4503 22.327H45.4557V22.3275Z" fill="#F45B1E"/>
<path d="M52.6459 51.1497L51.2075 52.588L41.0378 42.4183L42.4758 40.98L52.6459 51.1497Z" fill="#F45B1E"/>
</g>
<defs>
<clipPath id="clip0_6177_43">
<rect width="61" height="61" fill="white"/>
</clipPath>
</defs>
</svg>
