<svg width="61" height="61" viewBox="0 0 61 61" fill="none" xmlns="http://www.w3.org/2000/svg">
<g clip-path="url(#clip0_6177_54)">
<path d="M60.5473 14.5285L56.9333 12.1208V2.15749C56.9333 1.59603 56.4781 1.1408 55.9166 1.1408H48.7998C48.2384 1.1408 47.7831 1.59603 47.7831 2.15749V6.02069L39.1969 0.296872C38.8554 0.0690114 38.4101 0.0690114 38.0685 0.296872L16.7181 14.5305C16.4361 14.7186 16.2664 15.0353 16.2659 15.3744V21.4745C16.2659 21.8498 16.4719 22.1943 16.8025 22.3711C17.1336 22.5483 17.5347 22.5284 17.8465 22.3204L20.3326 20.6614V22.4912H22.366V19.3081L38.633 8.46114L54.9 19.3081V41.8082H45.7498V24.5246C45.7498 23.9631 45.2945 23.5079 44.7331 23.5079H32.5329C31.9714 23.5079 31.5162 23.9631 31.5162 24.5246V33.6748H33.5495V25.5413H43.7164V41.8082H34.5662V43.8416H55.9166C56.4781 43.8416 56.9333 43.3864 56.9333 42.8249V20.6614L59.4189 22.3184C59.7307 22.5265 60.1313 22.5458 60.4619 22.3696C60.7926 22.1933 60.9991 21.8493 61.0001 21.4745V15.3744C61.0001 15.0344 60.8303 14.7171 60.5473 14.5285ZM49.8165 3.17417H54.9V10.7636L49.8165 7.37495V3.17417ZM58.9667 19.5752L39.1969 6.395C38.8554 6.16714 38.4101 6.16714 38.0685 6.395L18.2992 19.5752V15.9155L38.633 2.36102L58.9667 15.9185V19.5752Z" fill="#F45B1E"/>
<path d="M3.16477 61.1251H31.4002C32.6824 61.1217 33.8366 60.3472 34.3256 59.1623C34.8151 57.9773 34.5435 56.6141 33.6371 55.7071L32.533 54.6041V41.8081C32.5256 36.2476 28.4404 31.534 22.9375 30.7362L25.3144 25.9953C25.4723 25.6796 25.4549 25.3043 25.2683 25.004C25.0816 24.7041 24.7525 24.5224 24.3995 24.5244H10.1659C9.81344 24.5244 9.4858 24.7066 9.30063 25.0065C9.11546 25.3058 9.09808 25.6801 9.25595 25.9953L11.6269 30.7362C6.12398 31.534 2.03936 36.2476 2.03241 41.8081V54.6041L0.927859 55.7081C0.0223723 56.6151 -0.248678 57.9778 0.240305 59.1623C0.729287 60.3472 1.88299 61.1212 3.16477 61.1251ZM2.36552 57.1448L3.76793 55.7429C3.95806 55.5522 4.06529 55.2941 4.06579 55.025V41.8081C4.07125 36.7569 8.1648 32.6634 13.216 32.6579C13.5679 32.6579 13.8956 32.4757 14.0807 32.1759C14.2664 31.8765 14.2833 31.5022 14.1259 31.187L11.8106 26.5578H22.7543L20.4395 31.187C20.2816 31.5022 20.299 31.8765 20.4842 32.1759C20.6693 32.4757 20.997 32.6579 21.3495 32.6579C26.4006 32.6634 30.4937 36.7569 30.4996 41.8081V55.025C30.4996 55.2946 30.6069 55.5532 30.7975 55.7439L32.1994 57.1458C32.5236 57.4714 32.6209 57.9594 32.4466 58.3844C32.2719 58.8093 31.8598 59.0883 31.4002 59.0918H3.16477C2.70507 59.0888 2.29205 58.8098 2.1173 58.3844C1.94256 57.9589 2.04085 57.4699 2.36552 57.1448Z" fill="#F45B1E"/>
<path d="M15.7576 46.8916H18.8077C19.6496 46.8916 20.3327 47.5742 20.3327 48.4167C20.3327 49.2591 19.6496 49.9417 18.8077 49.9417H13.2159V51.9751H16.266V54.0084H18.2993V51.9751H18.8077C20.7725 51.9751 22.3661 50.382 22.3661 48.4167C22.3661 46.4513 20.7725 44.8583 18.8077 44.8583H15.7576C14.9152 44.8583 14.2326 44.1757 14.2326 43.3332C14.2326 42.4908 14.9152 41.8082 15.7576 41.8082H21.3494V39.7748H18.2993V37.7415H16.266V39.7748H15.7576C13.7923 39.7748 12.1992 41.3679 12.1992 43.3332C12.1992 45.2986 13.7923 46.8916 15.7576 46.8916Z" fill="#F45B1E"/>
<path d="M36.5996 54.0083H38.633V56.0417H36.5996V54.0083Z" fill="#F45B1E"/>
<path d="M40.6665 54.0083H42.6999V56.0417H40.6665V54.0083Z" fill="#F45B1E"/>
<path d="M44.7332 54.0083H46.7665V56.0417H44.7332V54.0083Z" fill="#F45B1E"/>
<path d="M44.7332 49.9417H46.7665V51.975H44.7332V49.9417Z" fill="#F45B1E"/>
<path d="M44.7332 45.875H46.7665V47.9084H44.7332V45.875Z" fill="#F45B1E"/>
<path d="M39.6499 32.658H41.6833V36.7247H39.6499V32.658Z" fill="#F45B1E"/>
</g>
<defs>
<clipPath id="clip0_6177_54">
<rect width="61" height="61" fill="white"/>
</clipPath>
</defs>
</svg>
